Coordinates
version=1
nRows=7
nColumns=40
inDegrees=yes

Units are S.I. units (second, meters, Newtons, ...)
Angles are in degrees.

endheader
time	pelvis_tilt	pelvis_list	pelvis_rotation	pelvis_tx	pelvis_ty	pelvis_tz	hip_flexion_r	hip_adduction_r	hip_rotation_r	knee_angle_r	knee_angle_r_beta	ankle_angle_r	subtalar_angle_r	mtp_angle_r	hip_flexion_l	hip_adduction_l	hip_rotation_l	knee_angle_l	knee_angle_l_beta	ankle_angle_l	subtalar_angle_l	mtp_angle_l	lumbar_extension	lumbar_bending	lumbar_rotation	arm_flex_r	arm_add_r	arm_rot_r	elbow_flex_r	pro_sup_r	wrist_flex_r	wrist_dev_r	arm_flex_l	arm_add_l	arm_rot_l	elbow_flex_l	pro_sup_l	wrist_flex_l	wrist_dev_l
     13.39750000	     -1.13220331	     -4.67651837	      4.28513888	      1.00831668	      0.93578135	      0.51506818	      6.27630157	      3.71621421	    -17.37370846	     12.66430024	     12.66430024	     10.48363241	      4.42236099	     -5.91838039	     31.76720396	    -11.95954169	      0.07910034	     51.37479202	     51.37479202	      9.03978174	    -17.75044798	     11.71344108	    -10.51866362	      6.23913900	      3.86356331	     25.74390120	    -19.30489694	     -7.48180086	     69.57827199	     45.11864649	      0.00000000	      0.00000000	     -4.87841389	     -6.48197141	     -1.03233207	     26.59331330	     44.84346250	      0.00000000	      0.00000000
     13.41100000	     -1.22573117	     -4.65286947	      4.50671699	      1.00714680	      0.93590359	      0.51490180	      5.70658382	      3.77903894	    -17.74770033	     11.97455954	     11.97455954	     10.51543341	      5.01677755	     -6.07146867	     31.74427787	    -11.53489116	      0.17870595	     47.50888258	     47.50888258	      9.11114646	    -17.25398271	     11.83752248	    -10.59911991	      6.26905360	      3.98367406	     26.93162487	    -19.16652725	     -7.84668909	     70.09988228	     45.12235594	      0.00000000	      0.00000000	     -5.72811925	     -6.20183685	     -0.77609318	     26.65821035	     44.79134928	      0.00000000	      0.00000000
     13.42450000	     -1.52026903	     -4.82709054	      4.75227045	      1.00575023	      0.93531321	      0.51456320	      5.60642573	      3.98205084	    -18.03262393	     11.70188957	     11.70188957	     10.65020012	      5.17293032	     -6.22251004	     32.03296358	    -11.26815216	      0.42276065	     43.80768754	     43.80768754	      9.29897081	    -16.30612288	     12.04537889	    -10.45113725	      6.56599489	      4.26720035	     28.02692398	    -19.40584925	     -8.11350536	     70.48830746	     45.12515372	      0.00000000	      0.00000000	     -6.37593907	     -5.77435636	     -0.64465951	     26.62292627	     44.76043853	      0.00000000	      0.00000000
     13.43800000	     -1.58846450	     -4.69832746	      4.93325971	      1.00465041	      0.93525573	      0.51408424	      5.04851569	      3.90794413	    -18.30255540	     11.10990835	     11.10990835	     10.73474849	      5.71208987	     -6.43668227	     31.71646808	    -10.72911040	      0.43291513	     39.82278502	     39.82278502	      9.33910166	    -15.18379484	     11.96337852	    -10.59759713	      6.47074727	      4.29584228	     29.11362066	    -19.13964485	     -8.46996522	     70.93748377	     45.13013559	      0.00000000	      0.00000000	     -7.12491453	     -5.54545711	     -0.42527495	     26.68655191	     44.71686211	      0.00000000	      0.00000000
     13.45150000	     -1.78883023	     -4.80375743	      5.15790412	      1.00345662	      0.93466337	      0.51346263	      4.81460646	      4.03020101	    -18.59679541	     10.81028594	     10.81028594	     10.86369176	      5.95766471	     -6.66085211	     31.68029191	    -10.38777680	      0.59865498	     36.18694641	     36.18694641	      9.48272537	    -13.78594446	     11.91048877	    -10.55297002	      6.65852087	      4.40185895	     30.11181728	    -19.11858506	     -8.77658746	     71.25637304	     45.13684888	      0.00000000	      0.00000000	     -7.70169859	     -5.23654648	     -0.26121672	     26.73280804	     44.68475429	      0.00000000	      0.00000000
     13.46500000	     -1.86114202	     -4.85800110	      5.36842362	      1.00238867	      0.93425350	      0.51277757	      4.43388212	      4.10512073	    -18.84915570	     10.52392891	     10.52392891	     11.00507751	      6.25785345	     -6.93750792	     31.43414107	    -10.05202656	      0.60921223	     32.73413106	     32.73413106	      9.50532715	    -12.11187483	     11.71851615	    -10.66082548	      6.76107070	      4.42568846	     31.02802546	    -18.89879743	     -9.10559681	     71.48533943	     45.14761886	      0.00000000	      0.00000000	     -8.27643370	     -5.03530501	     -0.07928581	     26.79498321	     44.65319784	      0.00000000	      0.00000000
     13.47850000	     -1.91917899	     -5.01826627	      5.58773412	      1.00147881	      0.93372397	      0.51197419	      4.01091570	      4.28994213	    -19.23053402	     10.17579889	     10.17579889	     11.04843462	      6.69744472	     -7.42747823	     31.22355540	     -9.87050180	      0.43404146	     29.68158217	     29.68158217	      9.39262740	    -10.30178722	     10.66324089	    -10.75441933	      7.00065221	      4.26382477	     32.11487780	    -18.41311027	     -9.71830948	     71.32779710	     45.18745003	      0.00000000	      0.00000000	     -8.91690321	     -4.89086267	      0.30560091	     27.10320973	     44.60893201	      0.00000000	      0.00000000
